# xmcd CD database file
#
# Track frame offsets:
#	150
#	15717
#	30902
#	46540
#	61732
#	76620
#	93375
#	105777
#	123305
#	139272
#	153672
#	172282
#	194085
#
# Disc length: 4440 seconds
#
# Revision: 0
# Processed by: cddbd v1.5.1PL0 Copyright (c) Steve Scherf et al.
# Submitted via: CDex 1.51
#
DISCID=9a11560d
DTITLE=NEVER GOOD ENOUGH - Love and Destiny
DYEAR=2004
DGENRE=J ポップ
TTITLE0=Woman
TTITLE1=Odyssey
TTITLE2=Time Of Changing
TTITLE3=Summer Story
TTITLE4=Silly Story
TTITLE5=ひとつだけ
TTITLE6=Love Is Bind
TTITLE7=虹の橋
TTITLE8=This Is Instruction
TTITLE9=Your Smile
TTITLE10=このメロディー
TTITLE11=(I Sing) Only For You [ver.N]
TTITLE12=CCCD
EXTD=YEAR: 2004
EXTT0=
EXTT1=
EXTT2=
EXTT3=
EXTT4=
EXTT5=
EXTT6=
EXTT7=
EXTT8=
EXTT9=
EXTT10=
EXTT11=
EXTT12=
PLAYORDER=
